<svg xmlns="http://www.w3.org/2000/svg" viewBox="0 0 188.34 188.04"><g id="Layer_2" data-name="Layer 2"><path id="Layer_1-2" d="M115.18 125.85l-.21-.12a15.63 15.63 0 01-5.71-5.84 10.78 10.78 0 01-1.46-3.53c-.1-.65 0-1.1.26-1.25.62-.38 2.42.6 3.62 2.68a46.69 46.69 0 013.42 7.83zm9.62-9.1h-.24a15.72 15.72 0 01-7.36-3.54c-2.49-2.09-2.84-3.24-2.87-3.64a.59.59 0 01.11-.45c.43-.52 2.29-.42 4.32 1.29a46.27 46.27 0 015.89 6.19zm5.92-11.87a20.66 20.66 0 01-2.78.27 16.38 16.38 0 01-5.58-1 11.11 11.11 0 01-3.39-1.76c-.5-.44-.71-.85-.6-1.14s.81-.73 2-.73a7.47 7.47 0 012.48.46 47.85 47.85 0 017.65 3.81zM132 91.79c-.45.25-.92.46-1.38.66a14.43 14.43 0 01-6.49 1.44c-3.26 0-4.74-.71-4.74-1.36s1.65-1.79 4.13-1.79a46.5 46.5 0 018.49 1h.12l-.13.07m-2.82-12.94L129 79a15.66 15.66 0 01-6.74 4.61 11.65 11.65 0 01-3.65.83c-.7 0-1.16-.18-1.27-.48s0-.79.64-1.44a6.86 6.86 0 012.63-1.66 46.78 46.78 0 018.31-2zm-7.3-11l-.08.23a15.65 15.65 0 01-4.8 6.56c-2.37 2-3.57 2.21-4 2.21a.66.66 0 01-.53-.2c-.46-.54.12-2.43 2-4a47.47 47.47 0 017.12-4.72zm-48.72-5.69l.21.13a15.63 15.63 0 015.71 5.84c1.62 2.81 1.56 4 1.45 4.4a.58.58 0 01-.26.38.61.61 0 01-.27.07c-.82 0-2.26-1-3.29-2.76a47.22 47.22 0 01-3.42-7.84zm-9.62 9.11h.24a15.72 15.72 0 017.36 3.54 10.87 10.87 0 012.58 2.81c.32.58.38 1 .18 1.28a1.11 1.11 0 01-.84.26 5.67 5.67 0 01-3.48-1.55 47.61 47.61 0 01-5.89-6.19zm-5.93 11.84a5.59 5.59 0 01.66-.09 15.36 15.36 0 012.13-.15 16.38 16.38 0 015.58 1 12 12 0 013.26 1.66c.58.47.85.92.73 1.24s-.82.73-2 .73a7.5 7.5 0 01-2.47-.46 47.09 47.09 0 01-7.65-3.81zm-1.26 13.12c.46-.25.92-.46 1.39-.67a14.48 14.48 0 016.48-1.43c3.26 0 4.74.71 4.74 1.36s-1.65 1.79-4.13 1.79a46.32 46.32 0 01-8.49-1h-.14l.15-.07m3 12.8c.34-.39.7-.75 1.07-1.1a14.61 14.61 0 015.6-3.56c2.64-1 4.67-1 4.92-.35.1.26 0 .78-.63 1.44a7 7 0 01-2.64 1.66 47.23 47.23 0 01-8.31 2h-.11l.1-.11m7.24 11c.18-.48.4-.94.62-1.4a14.5 14.5 0 014-5.26c2.37-2 3.58-2.21 4-2.21a.7.7 0 01.53.19c.23.28.18.9-.13 1.62a6.84 6.84 0 01-1.89 2.41 46.66 46.66 0 01-7.12 4.73l-.1.06.06-.14m31.59-6.85c-.88.15-1.45 1-1.71 2.36a17.92 17.92 0 00.26 5.91 24.5 24.5 0 006.17 12.7c-.11 3.68-.4 7.49-.68 11.18v.39l-.14-.1c-4.39-3.31-8.78-7-11.23-11.39a67.62 67.62 0 002.77-10 20 20 0 00.06-7.48c-.44-2-1.27-3.17-2.29-3.35-1.79-.29-3.31 2.32-4.18 7.28a24.55 24.55 0 001.45 14c-1.35 3.37-2.9 6.82-4.41 10.15l-.21.48-.09-.14c-3-4.62-5.87-9.57-6.66-14.55a68.07 68.07 0 006-8.44 19.38 19.38 0 002.63-7.2c.2-1.89-.16-3.25-1-3.74-1.48-.86-3.93 1.1-6.42 5.41a24.53 24.53 0 00-3.44 13.7c-2.54 2.84-5.42 5.79-7.73 8.15l-.13.13v.05-.11c-.19-.79-.36-1.56-.51-2.32-1.06-4.66-1.69-9.38-.87-13.61a67.51 67.51 0 008.55-5.86c4.86-4.09 6.51-8.23 5.26-9.73a1.78 1.78 0 00-1.43-.59c-1.52 0-3.75 1.2-6.46 3.47a24.52 24.52 0 00-7.91 11.69c-3.29 1.77-6.77 3.44-10.14 5.07l-.24.12v-.18c.68-5.46 1.66-11.11 4.25-15.42a69.07 69.07 0 0010-2.59 19.85 19.85 0 006.51-3.7c1.47-1.34 2.11-2.68 1.76-3.65-.21-.58-.85-1.27-2.68-1.27a17.83 17.83 0 00-5.72 1.29 24.49 24.49 0 00-11.44 8.27c-3.66.54-7.49.92-11.19 1.29h-.33l.08-.16c2.5-4.9 5.35-9.87 9.27-13a67.74 67.74 0 0010.32 1c6.35 0 10.28-2.12 10.28-4.08s-2.88-2.85-7.9-2.85a24.53 24.53 0 00-13.58 3.86c-3.69-.76-7.54-1.75-10.94-2.61l-.27.01.12-.11c4-3.75 8.41-7.45 13.17-9.09a67.7 67.7 0 009.36 4.47 20.69 20.69 0 006.84 1.37c2.29 0 3.82-.62 4.21-1.68.62-1.71-1.73-3.67-6.44-5.39a24.87 24.87 0 00-14.09-1c-3.21-2-6.52-4.25-9.44-6.24l-.22-.15.15-.07c5-2.1 10.21-4 15.18-4H61a66.62 66.62 0 007.27 7.39c3.07 2.58 6.37 4.18 8.62 4.18a2.35 2.35 0 001.87-.69c.39-.46.67-1.34-.2-2.88a17.35 17.35 0 00-4-4.38 24.57 24.57 0 00-12.89-5.77c-2.24-2.83-4.43-5.88-6.55-8.83l-.27-.38-.08-.1h.17c1.77-.1 3.34-.14 4.78-.14a31 31 0 0111.15 1.64 66.65 66.65 0 004.3 9.43c2.78 4.82 6.71 8 8.66 6.87.53-.3 1.09-1 .8-2.78a17.35 17.35 0 00-2.27-5.48 24.53 24.53 0 00-10.17-9.89C71 55.72 69.93 51.86 69 48.46l-.07-.27.15.05c5.26 1.61 10.65 3.55 14.46 6.86a66.83 66.83 0 00.81 10.33c1.13 6.43 3.92 9.74 5.79 9.42.6-.1 1.38-.6 1.7-2.34a17.46 17.46 0 00-.25-5.93 24.57 24.57 0 00-6.17-12.71c.11-3.63.39-7.41.67-11.06v-.52l.14.12c4.39 3.3 8.78 7 11.23 11.39a67.62 67.62 0 00-2.77 10 19.45 19.45 0 000 7.66c.46 1.84 1.27 3 2.24 3.17 1.72.27 3.3-2.32 4.18-7.28a24.54 24.54 0 00-1.45-14.05c1.4-3.5 3-7 4.55-10.48v-.07.11c.45.69.88 1.36 1.29 2 2.58 4 4.78 8.23 5.45 12.48a66 66 0 00-6 8.44 20.09 20.09 0 00-2.62 7c-.25 2 .11 3.41 1 3.93 1.52.85 3.93-1.12 6.42-5.41a24.61 24.61 0 003.44-13.7c2.41-2.7 5-5.39 7.57-8l.4-.41v.16c1.23 5.35 2.25 11 1.29 15.95a67.93 67.93 0 00-8.45 5.89c-4.86 4.09-6.52 8.23-5.26 9.73a1.78 1.78 0 001.43.59c1.51 0 3.75-1.2 6.46-3.47a24.5 24.5 0 007.92-11.7c3.2-1.72 6.62-3.37 9.92-5l.15-.08.32-.17v.19c-.68 5.46-1.65 11.1-4.25 15.43a67.72 67.72 0 00-10 2.59c-6 2.17-8.93 5.51-8.27 7.35.22.58.85 1.27 2.68 1.27a17.89 17.89 0 005.72-1.29 24.46 24.46 0 0011.44-8.28c3.7-.53 7.55-.92 11.28-1.29h.23l-.07.14c-2.5 4.9-5.35 9.87-9.27 13a67.29 67.29 0 00-10.32-1c-6.35 0-10.28 2.12-10.28 4.08s2.88 2.85 7.9 2.85a24.46 24.46 0 0013.58-3.87c3.69.77 7.57 1.76 11 2.64l.28.07-.12.11c-4 3.74-8.4 7.44-13.17 9.09a66.62 66.62 0 00-9.36-4.47 20.64 20.64 0 00-6.94-1.29c-2.29 0-3.82.61-4.21 1.68-.21.57-.17 1.49 1.17 2.64a17.68 17.68 0 005.27 2.75 24.94 24.94 0 0014.09 1c3.14 2 6.31 4.1 9.37 6.19l.2.14h-.09l-1.8.74c-4.41 1.89-9 3.38-13.3 3.38h-.35a66.61 66.61 0 00-7.27-7.39c-3.07-2.58-6.37-4.18-8.62-4.18a2.34 2.34 0 00-1.87.69c-1.17 1.39.37 4 4.21 7.26a24.57 24.57 0 0012.89 5.77c2.32 3 4.6 6.11 6.8 9.18v.05h-.88c-1.53.14-2.82.19-4 .19a31.06 31.06 0 01-11.11-1.5 65.65 65.65 0 00-4.3-9.44c-2.41-4.17-5.6-7.09-7.77-7.09a1.71 1.71 0 00-.89.23c-1.57.9-1 3.91 1.47 8.26a24.53 24.53 0 0010.14 9.83c1.16 3.52 2.2 7.22 3.21 10.81l.09.3h-.16c-5.26-1.61-10.65-3.55-14.46-6.86a65.6 65.6 0 00-.81-10.33c-1.13-6.43-3.91-9.73-5.79-9.42m4.71 17.69a14.86 14.86 0 01-.89-1.24 14.53 14.53 0 01-2.55-6.15c-.56-3.2-.09-4.31.15-4.63a.54.54 0 01.36-.27h.09c.71 0 2 1.34 2.4 3.77a48.06 48.06 0 01.53 8.53v.01l-.09-.11m-13.14.77c-.17-.49-.29-1-.41-1.48a14.34 14.34 0 01-.29-6.63c.58-3.28 1.48-4.44 2.08-4.44h.07a.94.94 0 01.54.42 5.62 5.62 0 01.52 4 47.5 47.5 0 01-2.42 8.19v.1-.13m-12.6-3.76c0-.45.07-1 .11-1.54a14.89 14.89 0 012-6.33c1.87-3.24 3-3.49 3.3-3.49a.54.54 0 01.25.06c.24.15.48.62.44 1.52a6.85 6.85 0 01-1 3 46.77 46.77 0 01-5.08 6.87l-.08.1v-.15m8.11-71l.16.19a15.63 15.63 0 013.37 7.43c.56 3.2.09 4.31-.14 4.64a.61.61 0 01-.45.28c-.72 0-2-1.34-2.41-3.77a48 48 0 01-.53-8.52zm13.23-.8l.08.24a15.63 15.63 0 01.62 8.14c-.58 3.27-1.48 4.44-2.14 4.44S95.6 67 96 64.55a47.32 47.32 0 012.42-8.2zm12.7 3.78v.25A15.6 15.6 0 01109 68c-1.27 2.19-2.49 3.5-3.28 3.5a.44.44 0 01-.26-.07c-.25-.14-.49-.61-.45-1.51a6.85 6.85 0 011-3 47 47 0 015.08-6.88zm-3.92 94.58c8.93 6.76 16.63 12.61 15.12 21.2-.86 4.84-4.08 6.56-6.58 6.56a5.22 5.22 0 01-1-.08c-2.35-.41-4.44-2.39-3.82-5.89a2.37 2.37 0 012.47-2c.7-.05 1.64-.13 1.84-1.2a1.8 1.8 0 00-1.57-2.08c-2-.35-3.68 1.42-4.19 4.32-1 5.89 2 9.6 5.46 10.22a6.56 6.56 0 001.08.09c3 0 6.79-2.26 7.92-8.64 2.39-13.57-8.1-21.23-18.25-28.64l-1.57-1.16c.15-3.07.41-7.18.5-11.13v-.1l.1.09c.65.57 1.33 1.1 2 1.61a54.74 54.74 0 0013.78 6.54c1.43 4.82 2.93 9.63 4.6 12.51 1.86 3.22 3.37 3.7 4.11 3.7a1.34 1.34 0 00.72-.19 1.24 1.24 0 00.61-.91 1.78 1.78 0 00-.24-1.19 3.1 3.1 0 00-.89-1 8.85 8.85 0 01-3.2-3.45 49.35 49.35 0 01-3.22-8.63v-.07h.1l.81.25 3.18 1c10.7 3.3 19.94 6.16 21.45 14.74.88 5-1.79 8.13-4.87 8.68a5.82 5.82 0 01-.92.08c-1.9 0-4.13-1.13-4.69-4.31a2.37 2.37 0 011.65-2.69c.64-.28 1.51-.67 1.32-1.76a1.8 1.8 0 00-2.18-1.41c-2 .35-3 2.61-2.47 5.5 1 5.77 4.71 7.82 7.55 7.82a6.47 6.47 0 001.08-.09 6.58 6.58 0 004.59-3.37 11.54 11.54 0 00.94-7.74c-2.39-13.58-14.87-17.19-26.94-20.68l-1.88-.55c-.9-2.93-2.06-6.87-3.33-10.63v-.07h.11c.72.28 1.46.53 2.2.74a51.54 51.54 0 0013.41 1.53h2c3 4 6.06 8.06 8.6 10.18 2.15 1.81 3.58 2.19 4.41 2.19a1.7 1.7 0 001.33-.53 1.24 1.24 0 00.29-.93 1.74 1.74 0 00-.66-1.18 3.32 3.32 0 00-1.17-.6 8.94 8.94 0 01-4.19-2.14 48.49 48.49 0 01-6-7v-.06h.15l1.34-.06 2.81-.15c2.82-.14 5.48-.27 8.07-.27 6.86 0 13.69.82 17.13 6.79a8.28 8.28 0 011.15 6.06 6 6 0 01-2.76 3.76 4.71 4.71 0 01-6.71-2.05 2.39 2.39 0 01.62-3.1c.5-.48 1.19-1.14.64-2.1a1.88 1.88 0 00-2.53-.58c-1.75 1-1.92 3.42-.44 6 1.9 3.27 4.66 5.15 7.58 5.15a6.4 6.4 0 003.18-.84c3.07-1.78 4.82-6.39 1.39-12.33-5.42-9.39-14.51-10.66-22.69-10.66-3.22 0-6.66.24-9.7.44l-1.94.13c-1.86-2.45-4.28-5.74-6.78-8.84l-.14-.16h.78c6 0 12.11-2 16.73-3.84 4.21 2.78 8.46 5.49 11.57 6.62a10.71 10.71 0 003.55.76c1.79 0 2.28-.81 2.41-1.16a1.28 1.28 0 00-.1-1.08 1.76 1.76 0 00-1-.78 2.84 2.84 0 00-1.29-.16 8.66 8.66 0 01-4.67-.58 49 49 0 01-8-4.55h-.06.11l.7-.3c.86-.35 1.89-.79 2.77-1.16l.36-.15c6.47-2.73 12.57-5.3 17.87-5.3a12 12 0 018 2.81c3.87 3.25 3.86 7.38 1.84 9.78a4.87 4.87 0 01-7 .36 2.37 2.37 0 01-.46-3.12c.3-.63.72-1.48-.12-2.19a1.86 1.86 0 00-2.58.32c-1.28 1.52-.6 3.9 1.64 5.79a10.26 10.26 0 006.49 2.67 6.43 6.43 0 006.44-7.82 11.64 11.64 0 00-4.25-6.54 19.38 19.38 0 00-12.92-4.77c-6.9 0-14.08 3.18-21 6.25l-1.78.79c-2.75-1.78-6.07-4-9.39-6h-.07.12c.82-.28 1.62-.61 2.41-1a54.62 54.62 0 0012.58-8.62c4.9 1.17 9.81 2.27 13.13 2.27 4 0 5.47-1.31 5.47-2.42s-1.5-1.73-2.93-1.05a8.86 8.86 0 01-4.57 1 49.37 49.37 0 01-9-1.53h-.06l.08-.07c.2-.18.4-.35.59-.54.7-.68 1.56-1.48 2.31-2.18 6.74-6.24 13-12 19.59-12a11.78 11.78 0 014 .73 8.33 8.33 0 014.72 3.82 5.92 5.92 0 01.36 4.74c-.94 2.59-3.6 3.78-6.46 2.74a2.38 2.38 0 01-1.51-2.77c.07-.69.17-1.64-.86-2a1.84 1.84 0 00-2.32 1.18A3 3 0 00174 91a6.88 6.88 0 002.95 2c5 1.81 9.64.17 11-3.61a6.54 6.54 0 00-.62-5.65 11.59 11.59 0 00-6.22-4.74 20.54 20.54 0 00-7-1.3C164.59 77.68 157 85 149.73 92l-1.41 1.36c-3.19-.73-7-1.67-10.88-2.43h-.07l.09-.08c.67-.54 1.31-1.11 1.92-1.7a54.06 54.06 0 008.84-12.45c5-.57 10-1.22 13.12-2.35A9.4 9.4 0 00165 72.2a2 2 0 00.67-2 1.55 1.55 0 00-2-.73 3 3 0 00-1.1.71 9 9 0 01-3.95 2.56 48.6 48.6 0 01-9 1.65h-.07l.06-.11.35-.67c.4-.8.92-1.82 1.36-2.68l.18-.34C156.54 60.61 161 52 169.68 52c5 0 7.69 3.17 7.69 6.31 0 2.38-1.58 4.79-5.13 4.79a2.38 2.38 0 01-2.37-2.1c-.16-.67-.4-1.6-1.49-1.6a1.78 1.78 0 00-1.77 1.91c0 2 2 3.37 5 3.37 6 0 9.11-3.6 9.11-7.15s-3.12-7.38-10-7.38c-13.79 0-19.51 11.67-25.05 22.95l-.86 1.75c-3.43.42-7.25.85-11 1.44h-.08l.06-.1c.45-.74.85-1.51 1.23-2.28a54.25 54.25 0 004-14.7c4.51-2.25 9-4.57 11.53-6.7 3.08-2.59 3.34-4.51 2.63-5.37a1.59 1.59 0 00-2.15 0 3.19 3.19 0 00-.79 1.05A8.88 8.88 0 01147.4 52a48 48 0 01-7.9 4.64h-.06v-.12c0-.27 0-.38.1-.82.13-1.11.26-2.22.39-3.28 1.4-11.11 2.6-20.71 10.8-23.69a9.89 9.89 0 013.36-.63 6.2 6.2 0 016 3.92 4.71 4.71 0 01-.07 3.58 5.21 5.21 0 01-3.02 2.66 2.42 2.42 0 01-3-1.15c-.4-.6-1-1.34-2-1a1.67 1.67 0 00-1 .88 2 2 0 000 1.51 3.22 3.22 0 003.29 2 7.51 7.51 0 002.55-.49 10.17 10.17 0 005.61-4.38 6.51 6.51 0 00.5-5.46c-1-2.73-3.74-4.42-7.16-4.42a13.82 13.82 0 00-4.74.91c-13 4.71-14.35 17.63-15.69 30.13l-.21 1.94c-2.57 1.31-6.38 3.2-9.89 5.13h-.07c.16-.84.32-1.82.41-2.68A54.53 54.53 0 00124.42 46c3.46-3.65 6.87-7.36 8.54-10.24 2-3.49 1.59-5.38.63-5.94a1.56 1.56 0 00-2 .73 3.21 3.21 0 00-.38 1.26 8.92 8.92 0 01-1.38 4.49 47.14 47.14 0 01-5.83 7l-.06.07v-.12c0-.28-.12-.54-.17-.77-.24-1.1-.49-2-.7-3l-.06-.25c-2.49-10.92-4.64-20.35 2-25.95a8.43 8.43 0 015.38-2.19 5.9 5.9 0 014.61 2.09c1.54 1.82 1.86 4.69-.85 7a2.39 2.39 0 01-3.16-.08c-.61-.45-1.46-.87-2.18-.27a1.69 1.69 0 00-.62 1.27 2 2 0 00.49 1.33c1.23 1.47 3.84 1.19 6-.62 4.58-3.84 4.66-8.61 2.38-11.34a6.56 6.56 0 00-5.13-2.28 11.52 11.52 0 00-7.26 3.05c-10.56 8.86-7.44 21.48-4.43 33.68l.46 1.89c-2.15 2.19-5 5.19-7.59 8.19l-.06.09v-.15c-.13-.86-.32-1.71-.53-2.55a54.15 54.15 0 00-6.35-13.84c2-4.63 4-9.28 4.52-12.54a9.41 9.41 0 000-4.19 2.07 2.07 0 00-1.43-1.61 1.53 1.53 0 00-1.65 1.38 3.29 3.29 0 00.07 1.31 8.92 8.92 0 01.24 4.7 47.88 47.88 0 01-3.06 8.6v.09-.1c-.14-.23-.26-.43-.45-.71-.61-.9-1.18-1.77-1.74-2.62-6.15-9.55-11.39-17.67-7-25.22 1.43-2.74 3.77-4.3 6.33-4.3a5.82 5.82 0 012.9.77 4.68 4.68 0 012.24 2.78 5.21 5.21 0 01-.67 4.06 2.44 2.44 0 01-3 1 1.76 1.76 0 00-2.14.5 1.77 1.77 0 00.77 2.48c1.66 1 4-.18 5.41-2.63 3-5.18 1.44-9.69-1.64-11.46a6.3 6.3 0 00-3.2-.84c-3.1 0-6.09 2.11-8.21 5.79-6.9 11.94.34 22.73 7.35 33.16l1.08 1.63c-1.2 2.84-2.86 6.63-4.28 10.28v.07l-.06-.1c-.42-.76-.87-1.48-1.35-2.19a54.51 54.51 0 00-10.74-10.87c.31-5 .54-10.05 0-13.32-.69-3.93-2.25-5.14-3.33-5a1.25 1.25 0 00-.89.64 1.82 1.82 0 00-.24 1.25 3.09 3.09 0 00.52 1.21 9 9 0 011.83 4.33 48.33 48.33 0 01.06 9.2v.07l-.09-.07-.66-.52-2.65-2C72.09 26.79 64.39 21 65.9 12.36c.86-4.85 4.08-6.57 6.58-6.57a5.23 5.23 0 011 .09c2.35.41 4.44 2.4 3.82 5.89a2.37 2.37 0 01-2.47 2c-.69 0-1.64.12-1.83 1.2A1.78 1.78 0 0074.53 17c2 .34 3.68-1.42 4.19-4.33a10.16 10.16 0 00-1-7 6.34 6.34 0 00-5.55-3.25c-3 0-6.79 2.26-7.92 8.63-2.39 13.58 8.1 21.25 18.25 28.66l1.57 1.14c-.15 3.07-.41 7.16-.5 11.14V52l-.09-.09c-.64-.56-1.32-1.09-2-1.59a54.34 54.34 0 00-13.79-6.52c-1.44-4.84-3-9.65-4.6-12.51-1.86-3.22-3.37-3.7-4.11-3.7a1.45 1.45 0 00-.72.18 1.49 1.49 0 00-.37 2.11 3.26 3.26 0 00.9 1A8.84 8.84 0 0162 34.29a48.42 48.42 0 013.19 8.57v.06h-.11l-.81-.25-3.15-.94C50.43 38.4 41.19 35.54 39.68 27c-.88-5 1.79-8.13 4.87-8.68a5.82 5.82 0 01.92-.08c1.9 0 4.13 1.13 4.69 4.3a2.39 2.39 0 01-1.65 2.7c-.6.26-1.51.67-1.32 1.75a1.8 1.8 0 002.18 1.42 3 3 0 002.24-2 6.73 6.73 0 00.23-3.54c-1-5.77-4.71-7.82-7.55-7.82a6.47 6.47 0 00-1.08.09 6.6 6.6 0 00-4.59 3.37 11.55 11.55 0 00-.94 7.74c2.39 13.58 14.87 17.19 26.94 20.68l1.88.54c1 3.12 2.07 6.93 3.33 10.64v.07h-.11c-.73-.28-1.47-.52-2.21-.74a51.54 51.54 0 00-13.41-1.53h-2c-3-4-6-8-8.6-10.19-2.15-1.81-3.59-2.19-4.41-2.19a1.67 1.67 0 00-1.33.54 1.27 1.27 0 00-.27 1.07 1.84 1.84 0 00.64 1 3.24 3.24 0 001.17.6 8.8 8.8 0 014.2 2.16 47.77 47.77 0 015.92 7l.06.08h-.87c-1 .07-1.87.12-2.78.16h-.6c-2.92.14-5.54.27-8.07.27-6.86 0-13.69-.82-17.13-6.79a8.23 8.23 0 01-1.14-6.06 5.9 5.9 0 012.75-3.76 5 5 0 012.46-.69 4.9 4.9 0 014.25 2.74 2.36 2.36 0 01-.63 3.15c-.5.49-1.18 1.15-.63 2.1a1.86 1.86 0 002.53.58A2.92 2.92 0 0031.05 45a6.76 6.76 0 00-1-3.4c-1.9-3.27-4.66-5.15-7.58-5.15a6.38 6.38 0 00-3.18.84c-3.07 1.78-4.82 6.39-1.39 12.33 5.42 9.39 14.51 10.66 22.68 10.66 3.17 0 6.46-.23 9.65-.44l2-.13c1.86 2.46 4.3 5.77 6.76 8.84l.13.16h-.71c-6.12 0-12.21 2-16.83 3.84-4.18-2.75-8.42-5.47-11.58-6.61a10.76 10.76 0 00-3.56-.75c-1.78 0-2.27.81-2.4 1.16a1.3 1.3 0 00.11 1.1 1.8 1.8 0 001 .76 3.06 3.06 0 001 .17h.27a8.49 8.49 0 014.66.58 49 49 0 018 4.53h.06l-.81.36c-.84.38-1.65.7-2.46 1l-.65.27c-6.48 2.73-12.58 5.3-17.87 5.3a12 12 0 01-8-2.81c-3.87-3.25-3.86-7.38-1.85-9.78a4.88 4.88 0 017-.36 2.38 2.38 0 01.5 3.18c-.31.62-.73 1.48.11 2.19a1.89 1.89 0 002.59-.32c1.27-1.52.59-3.91-1.66-5.79a10.18 10.18 0 00-6.48-2.67 6.61 6.61 0 00-5.09 2.29 6.54 6.54 0 00-1.35 5.53 11.59 11.59 0 004.25 6.53 19.32 19.32 0 0012.91 4.78c6.91 0 14.09-3.18 21-6.25l1.78-.79c2.75 1.78 6.07 4 9.39 6h.06-.11c-.82.28-1.62.6-2.4 1a54.5 54.5 0 00-12.55 8.66c-4.89-1.17-9.81-2.27-13.13-2.27-4 0-5.46 1.3-5.46 2.42s1.48 1.73 2.92 1.09A8.86 8.86 0 0126.35 92a47.85 47.85 0 019 1.53h.07l-.09.07-.61.55c-.77.7-1.6 1.56-2.39 2.29-6.62 6.13-12.87 11.92-19.47 11.92a11.78 11.78 0 01-4-.72 8.2 8.2 0 01-4.77-3.91 5.94 5.94 0 01-.3-4.65c.94-2.6 3.63-3.77 6.46-2.74a2.37 2.37 0 011.51 2.77c-.07.7-.17 1.64.86 2a1.84 1.84 0 002.29-1.11c.68-1.87-.77-3.88-3.53-4.88-5-1.81-9.62-.17-11 3.61a6.54 6.54 0 00.62 5.64 11.58 11.58 0 006.24 4.69 20.39 20.39 0 007 1.29c9.49 0 17.05-7.26 24.36-14.28l1.4-1.36c3.39.78 7.13 1.69 10.87 2.43H51l-.09.08c-.66.53-1.29 1.1-1.9 1.69a54.1 54.1 0 00-8.86 12.46c-5 .57-10 1.22-13.12 2.35-2.21.8-3.7 1.84-4.2 2.93a1.41 1.41 0 001.91 2 3.16 3.16 0 001.1-.72 9 9 0 014-2.55 49.61 49.61 0 019.11-1.67H39l-.05.08-.33.65c-.37.72-1 1.8-1.4 2.63l-.23.44C31.8 127.44 27.39 136 18.66 136c-5.05 0-7.69-3.17-7.69-6.3 0-2.38 1.59-4.79 5.13-4.79a2.37 2.37 0 012.37 2.09c.17.68.39 1.6 1.5 1.6a1.78 1.78 0 001.77-1.9c0-2-2-3.37-5-3.37-6 0-9.11 3.6-9.11 7.15s3.13 7.37 10 7.37c13.79 0 19.51-11.66 25.05-22.94l.86-1.75c3.23-.4 7.17-.84 11-1.44h.08l-.06.11c-.45.74-.85 1.49-1.22 2.26a54.32 54.32 0 00-4 14.72c-4.51 2.25-9 4.56-11.53 6.7-3.09 2.59-3.34 4.51-2.63 5.36a1.57 1.57 0 002.15 0 3.19 3.19 0 00.79-1 8.94 8.94 0 012.83-3.75 49.47 49.47 0 018-4.67v.26c0 .28-.06.41-.09.69-.12 1.11-.3 2.19-.43 3.24-1.41 11.16-2.61 20.75-10.81 23.74a9.89 9.89 0 01-3.36.63 6.21 6.21 0 01-6-3.93 4.73 4.73 0 01.07-3.57 5.17 5.17 0 013.12-2.68 2.39 2.39 0 012.93 1.16c.41.59 1 1.34 2 1a1.7 1.7 0 001-1 2 2 0 000-1.42 3.21 3.21 0 00-3.38-1.99 7.41 7.41 0 00-2.54.49 10.07 10.07 0 00-5.61 4.38 6.52 6.52 0 00-.51 5.45c1 2.73 3.74 4.43 7.16 4.43a14 14 0 004.74-.91c12.95-4.71 14.34-17.63 15.69-30.12l.21-2c2.75-1.4 6.44-3.24 9.88-5.13h.08v.12c-.17.86-.29 1.72-.38 2.58a54.81 54.81 0 001.23 15.18c-3.46 3.66-6.87 7.36-8.53 10.24-2 3.49-1.6 5.38-.64 5.94a1.56 1.56 0 002-.73 3.27 3.27 0 00.38-1.26 8.92 8.92 0 011.38-4.49 48.39 48.39 0 015.86-7.08v-.06.1c.05.25.1.44.16.69.13.63.45 2 .67 3l.09.42c2.49 10.92 4.64 20.34-2 26a8.48 8.48 0 01-5.32 2.11 5.91 5.91 0 01-4.58-2.07c-1.53-1.83-1.86-4.69.85-7a2.39 2.39 0 013.16.08 1.72 1.72 0 002.18.26 1.69 1.69 0 00.59-1.2 2 2 0 00-.49-1.33c-1.23-1.47-3.83-1.19-6 .62a10 10 0 00-3.71 6.06 6.39 6.39 0 006.51 7.53 11.47 11.47 0 007.25-3c10.57-8.86 7.45-21.48 4.44-33.67l-.46-1.9c2.22-2.4 5-5.27 7.53-8.21l.06-.06v.12c.13.85.32 1.69.52 2.52a54.93 54.93 0 006.35 13.88c-2 4.62-3.94 9.27-4.52 12.54a9.54 9.54 0 000 4.19 2.07 2.07 0 001.43 1.61 1.55 1.55 0 001.65-1.38 3.28 3.28 0 00-.07-1.31 8.93 8.93 0 01-.24-4.7 48.64 48.64 0 013.07-8.61v-.06l.06.09.42.65c.5.79 1.13 1.69 1.66 2.5l.19.3c6.07 9.41 11.32 17.53 7 25.09-1.56 2.72-3.9 4.27-6.41 4.27a5.81 5.81 0 01-2.9-.76 4.74 4.74 0 01-2.24-2.78 5.21 5.21 0 01.67-4.06 2.42 2.42 0 013-1c.87.25 1.71.24 2.14-.5a1.77 1.77 0 00-.77-2.48 2.61 2.61 0 00-1.34-.36c-1.45 0-3 1.14-4.07 3a10.12 10.12 0 00-1.48 7 6.51 6.51 0 003.12 4.5 6.3 6.3 0 003.16.84c3.09 0 6.09-2.11 8.22-5.8 6.89-11.93-.35-22.72-7.36-33.16l-1.08-1.62c1.2-2.84 2.85-6.61 4.27-10.29v-.07l.06.11c.41.75.87 1.47 1.34 2.18a54.61 54.61 0 0010.73 10.88c-.3 5-.54 10.07 0 13.32.69 3.94 2.24 5.15 3.33 5a1.31 1.31 0 00.9-.64 1.86 1.86 0 00.18-1.22 3.07 3.07 0 00-.52-1.2 8.9 8.9 0 01-1.82-4.33 48 48 0 01-.08-9.19v-.07l.09.08.56.42c.8.57 1.08.82 1.82 1.37z" fill="currentColor"/></g></svg>